<svg width="93" height="20" viewBox="0 0 93 20" fill="none" xmlns="http://www.w3.org/2000/svg">
<path d="M1.03835 14.5762V4.7314H3.11979V8.79333H7.34516V4.7314H9.42179V14.5762H7.34516V10.5094H3.11979V14.5762H1.03835ZM14.4643 14.7204C13.7048 14.7204 13.0511 14.5666 12.5031 14.2589C11.9583 13.9481 11.5385 13.509 11.2436 12.9418C10.9488 12.3714 10.8014 11.6968 10.8014 10.918C10.8014 10.1585 10.9488 9.49195 11.2436 8.91831C11.5385 8.34467 11.9535 7.89762 12.4887 7.57715C13.0271 7.25669 13.6584 7.09645 14.3826 7.09645C14.8697 7.09645 15.3232 7.17497 15.743 7.332C16.166 7.48582 16.5346 7.71816 16.8486 8.02901C17.1659 8.33987 17.4127 8.73084 17.5889 9.20193C17.7652 9.66981 17.8533 10.2178 17.8533 10.8459V11.4083H11.6186V10.1393H15.9257C15.9257 9.84446 15.8616 9.58328 15.7334 9.35575C15.6052 9.12822 15.4274 8.95036 15.1998 8.82217C14.9755 8.69078 14.7143 8.62508 14.4163 8.62508C14.1054 8.62508 13.8298 8.69719 13.5895 8.8414C13.3523 8.98241 13.1665 9.17308 13.0319 9.41343C12.8973 9.65058 12.8284 9.91497 12.8252 10.2066V11.4132C12.8252 11.7785 12.8925 12.0941 13.0271 12.3601C13.1649 12.6261 13.3587 12.8312 13.6087 12.9754C13.8587 13.1196 14.1551 13.1918 14.498 13.1918C14.7255 13.1918 14.9338 13.1597 15.1229 13.0956C15.312 13.0315 15.4738 12.9354 15.6084 12.8072C15.743 12.679 15.8456 12.522 15.9161 12.3361L17.81 12.4611C17.7139 12.9161 17.5168 13.3135 17.2188 13.6532C16.9239 13.9897 16.5426 14.2525 16.0747 14.4416C15.61 14.6274 15.0732 14.7204 14.4643 14.7204ZM21.2951 14.7156C20.824 14.7156 20.4042 14.6339 20.0357 14.4704C19.6671 14.3038 19.3755 14.0586 19.1608 13.7349C18.9493 13.4081 18.8435 13.0011 18.8435 12.514C18.8435 12.1038 18.9189 11.7593 19.0695 11.4805C19.2201 11.2016 19.4252 10.9773 19.6848 10.8075C19.9444 10.6376 20.2392 10.5094 20.5693 10.4229C20.9025 10.3364 21.2519 10.2755 21.6172 10.2402C22.0466 10.1954 22.3927 10.1537 22.6555 10.1153C22.9183 10.0736 23.109 10.0127 23.2275 9.93259C23.3461 9.85248 23.4054 9.7339 23.4054 9.57687V9.54803C23.4054 9.24359 23.3093 9.00804 23.117 8.8414C22.9279 8.67476 22.6587 8.59143 22.3094 8.59143C21.9409 8.59143 21.6476 8.67315 21.4297 8.83659C21.2118 8.99683 21.0676 9.19872 20.9971 9.44228L19.1031 9.28845C19.1993 8.8398 19.3883 8.45203 19.6704 8.12515C19.9524 7.79507 20.3161 7.5419 20.7615 7.36565C21.2102 7.18618 21.7294 7.09645 22.319 7.09645C22.7292 7.09645 23.1218 7.14452 23.4967 7.24066C23.8749 7.3368 24.2098 7.48582 24.5014 7.68772C24.7962 7.88961 25.0286 8.14919 25.1984 8.46645C25.3683 8.78051 25.4532 9.15706 25.4532 9.5961V14.5762H23.5112V13.5523H23.4535C23.3349 13.783 23.1763 13.9865 22.9776 14.1628C22.7789 14.3358 22.5401 14.472 22.2613 14.5714C21.9825 14.6675 21.6605 14.7156 21.2951 14.7156ZM21.8816 13.3023C22.1828 13.3023 22.4488 13.243 22.6795 13.1245C22.9103 13.0027 23.0913 12.8392 23.2227 12.6341C23.3541 12.429 23.4198 12.1967 23.4198 11.9371V11.1536C23.3557 11.1952 23.2676 11.2337 23.1554 11.2689C23.0465 11.301 22.9231 11.3314 22.7853 11.3603C22.6475 11.3859 22.5097 11.4099 22.3719 11.4324C22.2341 11.4516 22.1091 11.4692 21.9969 11.4853C21.7566 11.5205 21.5467 11.5766 21.3672 11.6535C21.1878 11.7304 21.0484 11.8346 20.949 11.966C20.8497 12.0941 20.8 12.2544 20.8 12.4467C20.8 12.7255 20.9009 12.9386 21.1028 13.086C21.3079 13.2302 21.5675 13.3023 21.8816 13.3023ZM30.9692 7.19259V8.73084H26.5228V7.19259H30.9692ZM27.5322 5.42361H29.58V12.3073C29.58 12.4963 29.6089 12.6438 29.6665 12.7495C29.7242 12.8521 29.8043 12.9242 29.9069 12.9658C30.0126 13.0075 30.1344 13.0283 30.2722 13.0283C30.3684 13.0283 30.4645 13.0203 30.5606 13.0043C30.6568 12.985 30.7305 12.9706 30.7818 12.961L31.1038 14.4848C31.0013 14.5169 30.8571 14.5537 30.6712 14.5954C30.4853 14.6403 30.2594 14.6675 29.9934 14.6771C29.4999 14.6963 29.0673 14.6307 28.6955 14.48C28.327 14.3294 28.0402 14.0955 27.8351 13.7782C27.63 13.4609 27.529 13.0604 27.5322 12.5765V5.42361ZM32.3032 14.5762V7.19259H34.2548V8.49529H34.3414C34.4952 8.06266 34.7516 7.72136 35.1105 7.4714C35.4694 7.22144 35.8988 7.09645 36.3988 7.09645C36.9051 7.09645 37.3361 7.22304 37.6919 7.47621C38.0476 7.72617 38.2847 8.06587 38.4033 8.49529H38.4802C38.6308 8.07228 38.9032 7.73418 39.2974 7.48101C39.6948 7.22464 40.1643 7.09645 40.7059 7.09645C41.3949 7.09645 41.9541 7.31597 42.3835 7.75501C42.8161 8.19085 43.0325 8.80935 43.0325 9.61052V14.5762H40.9895V10.0143C40.9895 9.60411 40.8805 9.29646 40.6626 9.09137C40.4447 8.88627 40.1723 8.78372 39.8454 8.78372C39.4737 8.78372 39.1836 8.90229 38.9753 9.13944C38.767 9.37338 38.6629 9.68263 38.6629 10.0672V14.5762H36.6776V9.97105C36.6776 9.60892 36.5734 9.3205 36.3651 9.10579C36.16 8.89107 35.8892 8.78372 35.5527 8.78372C35.3252 8.78372 35.1201 8.8414 34.9374 8.95677C34.758 9.06893 34.6154 9.22756 34.5096 9.43266C34.4039 9.63456 34.351 9.8717 34.351 10.1441V14.5762H32.3032ZM46.7555 14.7156C46.2844 14.7156 45.8646 14.6339 45.4961 14.4704C45.1275 14.3038 44.8359 14.0586 44.6212 13.7349C44.4097 13.4081 44.3039 13.0011 44.3039 12.514C44.3039 12.1038 44.3792 11.7593 44.5298 11.4805C44.6805 11.2016 44.8856 10.9773 45.1451 10.8075C45.4047 10.6376 45.6995 10.5094 46.0296 10.4229C46.3629 10.3364 46.7122 10.2755 47.0776 10.2402C47.507 10.1954 47.8531 10.1537 48.1159 10.1153C48.3787 10.0736 48.5693 10.0127 48.6879 9.93259C48.8065 9.85248 48.8658 9.7339 48.8658 9.57687V9.54803C48.8658 9.24359 48.7696 9.00804 48.5774 8.8414C48.3883 8.67476 48.1191 8.59143 47.7698 8.59143C47.4012 8.59143 47.108 8.67315 46.8901 8.83659C46.6722 8.99683 46.528 9.19872 46.4575 9.44228L44.5635 9.28845C44.6596 8.8398 44.8487 8.45203 45.1307 8.12515C45.4127 7.79507 45.7765 7.5419 46.2219 7.36565C46.6706 7.18618 47.1897 7.09645 47.7794 7.09645C48.1896 7.09645 48.5822 7.14452 48.9571 7.24066C49.3353 7.3368 49.6701 7.48582 49.9618 7.68772C50.2566 7.88961 50.4889 8.14919 50.6588 8.46645C50.8286 8.78051 50.9136 9.15706 50.9136 9.5961V14.5762H48.9715V13.5523H48.9138C48.7953 13.783 48.6366 13.9865 48.4379 14.1628C48.2393 14.3358 48.0005 14.472 47.7217 14.5714C47.4429 14.6675 47.1208 14.7156 46.7555 14.7156ZM47.3419 13.3023C47.6432 13.3023 47.9092 13.243 48.1399 13.1245C48.3706 13.0027 48.5517 12.8392 48.6831 12.6341C48.8145 12.429 48.8802 12.1967 48.8802 11.9371V11.1536C48.8161 11.1952 48.728 11.2337 48.6158 11.2689C48.5068 11.301 48.3835 11.3314 48.2457 11.3603C48.1079 11.3859 47.9701 11.4099 47.8323 11.4324C47.6945 11.4516 47.5695 11.4692 47.4573 11.4853C47.217 11.5205 47.0071 11.5766 46.8276 11.6535C46.6481 11.7304 46.5087 11.8346 46.4094 11.966C46.31 12.0941 46.2604 12.2544 46.2604 12.4467C46.2604 12.7255 46.3613 12.9386 46.5632 13.086C46.7683 13.2302 47.0279 13.3023 47.3419 13.3023ZM52.5023 17.345V7.19259H54.5212V8.4328H54.6126C54.7023 8.23411 54.8321 8.03222 55.0019 7.82712C55.175 7.61882 55.3993 7.44576 55.6749 7.30796C55.9537 7.16696 56.2998 7.09645 56.7132 7.09645C57.2516 7.09645 57.7483 7.23746 58.2034 7.51947C58.6585 7.79828 59.0222 8.21969 59.2946 8.78372C59.567 9.34453 59.7032 10.048 59.7032 10.894C59.7032 11.7176 59.5702 12.413 59.3042 12.9802C59.0414 13.5443 58.6825 13.9721 58.2274 14.2637C57.7756 14.5521 57.2692 14.6963 56.7084 14.6963C56.311 14.6963 55.9729 14.6307 55.6941 14.4993C55.4185 14.3679 55.1926 14.2028 55.0163 14.0041C54.8401 13.8022 54.7055 13.5987 54.6126 13.3936H54.5501V17.345H52.5023ZM54.5068 10.8844C54.5068 11.3234 54.5677 11.7064 54.6895 12.0333C54.8112 12.3601 54.9875 12.6149 55.2182 12.7976C55.449 12.977 55.7294 13.0668 56.0595 13.0668C56.3928 13.0668 56.6748 12.9754 56.9055 12.7928C57.1362 12.6069 57.3109 12.3505 57.4295 12.0236C57.5512 11.6936 57.6121 11.3138 57.6121 10.8844C57.6121 10.4582 57.5529 10.0832 57.4343 9.75954C57.3157 9.43587 57.1411 9.1827 56.9103 9.00003C56.6796 8.81736 56.396 8.72603 56.0595 8.72603C55.7262 8.72603 55.4442 8.81416 55.2134 8.99042C54.9859 9.16667 54.8112 9.41664 54.6895 9.74031C54.5677 10.064 54.5068 10.4453 54.5068 10.8844ZM61.0684 17.345V7.19259H63.0873V8.4328H63.1787C63.2684 8.23411 63.3982 8.03222 63.568 7.82712C63.7411 7.61882 63.9654 7.44576 64.241 7.30796C64.5198 7.16696 64.8659 7.09645 65.2793 7.09645C65.8177 7.09645 66.3144 7.23746 66.7695 7.51947C67.2246 7.79828 67.5883 8.21969 67.8607 8.78372C68.1331 9.34453 68.2693 10.048 68.2693 10.894C68.2693 11.7176 68.1363 12.413 67.8703 12.9802C67.6075 13.5443 67.2486 13.9721 66.7935 14.2637C66.3417 14.5521 65.8353 14.6963 65.2745 14.6963C64.8771 14.6963 64.539 14.6307 64.2602 14.4993C63.9846 14.3679 63.7587 14.2028 63.5825 14.0041C63.4062 13.8022 63.2716 13.5987 63.1787 13.3936H63.1162V17.345H61.0684ZM63.0729 10.8844C63.0729 11.3234 63.1338 11.7064 63.2556 12.0333C63.3774 12.3601 63.5536 12.6149 63.7843 12.7976C64.0151 12.977 64.2955 13.0668 64.6256 13.0668C64.9589 13.0668 65.2409 12.9754 65.4716 12.7928C65.7023 12.6069 65.877 12.3505 65.9956 12.0236C66.1174 11.6936 66.1782 11.3138 66.1782 10.8844C66.1782 10.4582 66.119 10.0832 66.0004 9.75954C65.8818 9.43587 65.7072 9.1827 65.4764 9.00003C65.2457 8.81736 64.9621 8.72603 64.6256 8.72603C64.2923 8.72603 64.0103 8.81416 63.7795 8.99042C63.552 9.16667 63.3774 9.41664 63.2556 9.74031C63.1338 10.064 63.0729 10.4453 63.0729 10.8844Z" fill="black"/>
<circle cx="83.1483" cy="9.70497" r="9.70497" fill="#70DD6E"/>
<circle cx="83.2786" cy="9.83522" r="6.46998" fill="#F0D77D"/>
<circle cx="83.1481" cy="9.70374" r="3.23499" fill="#FF6C6C"/>
</svg>
